<?xml version="1.0" standalone="no"?><!DOCTYPE svg PUBLIC "-//W3C//DTD SVG 1.1//EN" "http://www.w3.org/Graphics/SVG/1.1/DTD/svg11.dtd"><svg t="1511627995128" class="icon" style="" viewBox="0 0 1024 1024" version="1.1" xmlns="http://www.w3.org/2000/svg" p-id="7464" xmlns:xlink="http://www.w3.org/1999/xlink" width="64" height="64"><defs><style type="text/css"></style></defs><path d="M417.664 839.246c-1.564-18.164-2.444-34.472-2.636-48.927-0.193-14.454-0.101-33.299 0.292-56.541 0.392-23.247 0.586-36.431 0.586-39.554 0-20.312 0.099-51.17 0.293-92.575 0.193-41.409 0.292-72.466 0.292-93.166 10.94-3.909 30.663-5.86 59.179-5.86 22.659 0 41.115 0.394 55.372 1.173 14.257 0.778 30.662 2.83 49.219 6.151 18.557 3.325 34.279 8.203 47.167 14.648 12.892 6.445 26.075 15.527 39.552 27.248 13.477 11.718 25.488 26.172 36.036 43.358 16.012 25.782 24.022 60.936 24.022 105.468 0 130.857-73.436 196.289-220.313 196.289-25.781 0-53.125-6.252-82.03-18.75-3.123-7.808-5.466-20.798-7.031-38.962z m-1.757-438.574c0-10.154 0.099-25.588 0.293-46.29 0.193-20.701 0.292-36.327 0.292-46.874 0-19.922-0.78-49.612-2.343-89.063-1.566-39.452-2.343-68.948-2.343-88.477 31.247-5.08 56.641-7.618 76.171-7.618 25.78 0 49.999 2.737 72.657 8.204 22.655 5.468 43.752 13.963 63.281 25.488 19.529 11.526 34.96 27.539 46.288 48.046 11.327 20.507 16.99 44.433 16.99 71.778 0 32.813-4.979 60.544-14.94 83.204-9.96 22.658-24.51 40.137-43.649 52.442-19.145 12.305-40.626 20.993-64.455 26.073-23.831 5.08-51.756 7.617-83.789 7.617-26.174 0-47.461-1.365-63.868-4.1-0.392-8.983-0.585-22.461-0.585-40.43zM234.852 954.969c78.515-4.296 138.474-6.446 179.882-6.446 17.185 0 42.966 0.587 77.343 1.757 34.376 1.174 60.158 1.759 77.345 1.759 35.934 0 70.311-2.738 103.123-8.202 32.813-5.467 64.748-14.942 95.801-28.419 31.056-13.477 58.008-30.175 80.858-50.098 22.853-19.923 41.116-45.409 54.787-76.465 13.668-31.055 20.507-66.11 20.507-105.177 0-58.199-20.021-106.639-60.059-145.311-40.038-38.671-90.133-64.846-150.292-78.516 20.699-9.376 37.106-17.187 49.219-23.438 12.112-6.253 26.367-15.041 42.773-26.367 16.406-11.327 29.006-22.559 37.794-33.692 8.788-11.131 16.404-25.195 22.85-42.186 6.445-16.993 9.668-35.644 9.668-55.959 0-29.295-5.467-56.15-16.407-80.566-10.938-24.416-25.388-44.824-43.357-61.23-17.972-16.406-39.064-30.274-63.281-41.601-24.217-11.327-49.32-19.529-75.294-24.609-25.975-5.081-52.634-7.617-79.98-7.617-8.982 0-22.263-0.101-39.843-0.293C540.713 62.1 527.427 62 518.445 62c-51.17 0-124.024 1.856-218.555 5.567-94.53 3.708-160.937 5.958-199.218 6.737l2.343 48.634c1.952 0.39 7.912 0.978 17.872 1.755 9.96 0.781 19.435 1.661 28.417 2.638 8.985 0.979 18.653 2.344 29.004 4.101 10.352 1.757 19.042 3.909 26.074 6.445 7.031 2.538 11.328 5.374 12.891 8.496 8.595 16.801 12.891 216.992 12.891 600.585v38.381c0 4.099-0.097 10.737-0.292 19.921-0.196 9.181-0.781 16.505-1.757 21.973a1204.687 1204.687 0 0 0-3.223 19.044c-1.173 7.223-2.833 13.767-4.982 19.627-2.148 5.86-4.59 11.132-7.323 15.82-14.064 5.858-34.766 11.134-62.11 15.821-27.345 4.686-43.946 7.812-49.805 9.375L99.501 962c11.718-0.395 56.835-2.737 135.351-7.031z" fill="#ffffff" p-id="7465"></path></svg>