<?xml version="1.0" standalone="no"?><!DOCTYPE svg PUBLIC "-//W3C//DTD SVG 1.1//EN" "http://www.w3.org/Graphics/SVG/1.1/DTD/svg11.dtd"><svg t="1511628480416" class="icon" style="" viewBox="0 0 1024 1024" version="1.1" xmlns="http://www.w3.org/2000/svg" p-id="15489" xmlns:xlink="http://www.w3.org/1999/xlink" width="64" height="64"><defs><style type="text/css"></style></defs><path d="M30.359 74.071c-4.688 8.596-7.031 17.971-7.031 28.125 0 11.719 3.516 20.408 10.547 26.074s15.135 8.689 24.316 9.082c9.176 0.393 19.629 1.271 31.348 2.637s20.701 4.002 26.953 7.91c13.283 8.203 19.922 35.549 19.922 82.031L137 782.47c0 53.906-6.838 85.354-20.508 94.336-5.859 3.908-14.455 6.346-25.781 7.324-11.332 0.979-21.387 1.564-30.176 1.758s-16.605 3.029-23.438 8.496c-6.838 5.467-10.254 14.063-10.254 25.781 0 10.154 2.438 19.529 7.324 28.125 4.881 8.596 12.205 12.891 21.973 12.891 16.793 0 41.988-0.686 75.586-2.051 33.592-1.365 58.787-2.051 75.586-2.051 17.186 0 42.967 0.686 77.344 2.051s60.158 2.051 77.344 2.051c9.768 0 17.092-4.295 21.973-12.891s7.324-17.971 7.324-28.125c0-14.842-4.98-24.51-14.941-29.004s-22.852-7.031-38.672-7.617-27.246-3.029-34.277-7.324c-13.67-8.203-20.508-39.451-20.508-93.75l0.586-187.5c0-8.203 0.193-14.455 0.586-18.75 5.08-1.172 12.498-1.758 22.266-1.758h409.571c10.154 0 17.771 0.586 22.852 1.758 0.387 4.295 0.586 10.547 0.586 18.75l0.586 187.5c0 54.299-6.838 85.547-20.508 93.75-5.859 3.908-14.256 6.445-25.195 7.617s-20.607 1.951-29.004 2.344-15.92 3.223-22.559 8.496-9.961 13.77-9.961 25.488c0 10.154 2.443 19.529 7.324 28.125s12.205 12.891 21.973 12.891c16.406 0 41.115-0.686 74.121-2.051s57.715-2.051 74.121-2.051c17.965 0 45.018 0.686 81.152 2.051 36.129 1.365 63.182 2.051 81.152 2.051 9.375 0 16.406-4.295 21.094-12.891s7.031-17.971 7.031-28.125c0-12.111-3.516-20.9-10.547-26.367s-15.041-8.203-24.023-8.203c-8.988 0-19.336-0.393-31.055-1.172s-20.508-3.123-26.367-7.031c-3.516-2.344-6.645-5.859-9.375-10.547-2.736-4.688-4.887-10.84-6.445-18.457-1.564-7.617-2.836-14.748-3.809-21.387-0.979-6.639-1.664-14.842-2.051-24.609-0.393-9.768-0.686-17.285-0.879-22.559-0.199-5.273-0.199-12.404 0-21.387 0.193-8.982 0.293-14.063 0.293-15.234V266.845l-0.586-33.398c0-46.875 6.445-74.807 19.336-83.789 5.859-3.908 14.063-6.838 24.609-8.789s19.822-3.416 27.832-4.395c8.004-0.979 15.035-4.395 21.094-10.254 6.053-5.859 9.082-14.648 9.082-26.367 0-9.375-2.443-18.164-7.324-26.367-4.887-8.203-11.818-12.305-20.801-12.305-16.406 0-41.215 0.686-74.414 2.051-33.205 1.365-58.207 2.051-75 2.051-17.971 0-45.023-0.686-81.152-2.051-36.135-1.365-63.381-2.051-81.738-2.051-9.375 0-16.506 4.295-21.387 12.891s-7.324 17.971-7.324 28.125c0 12.111 3.908 20.994 11.719 26.66s16.6 8.596 26.367 8.789 20.9 0.879 33.398 2.051 21.873 3.709 28.125 7.617c14.455 8.596 21.68 40.623 21.68 96.094l-0.586 217.383c0 8.203-0.199 14.256-0.586 18.164-5.08 1.564-15.041 2.344-29.883 2.344H313.367c-14.455 0-24.217-0.779-29.297-2.344-0.393-3.908-0.586-9.961-0.586-18.164l-0.586-229.102c0-46.482 6.445-73.828 19.336-82.031 6.252-3.908 15.041-6.838 26.367-8.789s21.287-3.322 29.883-4.102 16.213-4.102 22.852-9.961 9.961-14.842 9.961-26.953c0-9.768-2.537-18.65-7.617-26.66S371.375 61.181 362 61.181c-17.186 0-42.967 0.686-77.344 2.051s-60.158 2.051-77.344 2.051c-17.578 0-43.652-0.686-78.223-2.051s-60.451-2.051-77.637-2.051c-9.374 0-16.406 4.295-21.093 12.89z" fill="#ffffff" p-id="15490"></path></svg>