<?xml version="1.0" standalone="no"?><!DOCTYPE svg PUBLIC "-//W3C//DTD SVG 1.1//EN" "http://www.w3.org/Graphics/SVG/1.1/DTD/svg11.dtd"><svg t="1511628318624" class="icon" style="" viewBox="0 0 1024 1024" version="1.1" xmlns="http://www.w3.org/2000/svg" p-id="12612" xmlns:xlink="http://www.w3.org/1999/xlink" width="64" height="64"><defs><style type="text/css"></style></defs><path d="M320.694 435.483c42.26 0 76.521-34.266 76.521-76.524 0-42.284-34.262-76.525-76.521-76.525-42.219 0-76.521 34.242-76.521 76.525-0.001 42.258 34.302 76.524 76.521 76.524zM665.042 387.648L438.278 707.415 320.694 544.17 129.389 818.087H894.61L665.042 387.648z" p-id="12613" fill="#ffffff"></path><path d="M971.137 72H52.867c-21.148 0-38.259 17.127-38.259 38.26v803.48c0 21.15 17.111 38.26 38.259 38.26h918.27c21.143 0 38.257-17.109 38.257-38.26V110.26c0-21.133-17.115-38.26-38.257-38.26zM932.87 875.481H91.129V148.52H932.87v726.961z" p-id="12614" fill="#ffffff"></path></svg>