<?xml version="1.0" standalone="no"?><!DOCTYPE svg PUBLIC "-//W3C//DTD SVG 1.1//EN" "http://www.w3.org/Graphics/SVG/1.1/DTD/svg11.dtd"><svg t="1511628276467" class="icon" style="" viewBox="0 0 1024 1024" version="1.1" xmlns="http://www.w3.org/2000/svg" p-id="10787" xmlns:xlink="http://www.w3.org/1999/xlink" width="64" height="64"><defs><style type="text/css"></style></defs><path d="M898.977 127.73l-2.889-2.89c-83.79-83.787-216.695-83.787-300.481 0L404.914 315.532c-83.787 83.788-83.787 216.693 0 300.481l2.89 2.89c5.778 5.779 14.447 14.446 23.114 20.224l69.341-69.341c-8.666-5.778-17.335-11.557-23.113-17.336l-2.89-2.889c-46.228-46.228-46.228-118.459 0-161.798l190.69-190.69c43.341-46.228 118.46-46.228 161.799 0l2.889 2.89c46.229 46.228 46.229 118.458 0 161.798l-86.678 86.678c14.447 37.56 23.116 78.009 20.226 115.569l132.906-132.905c83.788-86.679 83.788-222.474 2.889-303.373M615.83 402.209c-5.78-5.778-14.447-14.447-23.114-20.225l-69.343 72.232c8.667 5.778 17.336 11.558 23.115 17.334l2.889 2.89c46.229 46.228 46.229 118.458 0 161.798l-190.691 190.69c-46.228 46.229-118.458 46.229-161.798 0l-2.888-2.89c-46.228-46.228-46.228-118.46 0-161.799l86.677-86.677C266.23 538 257.563 497.554 260.452 459.993L127.547 592.897c-83.789 83.79-83.789 216.695 0 300.483v5.778c83.788 83.788 216.694 83.788 300.481 0l190.691-190.69c83.786-83.787 83.786-216.693 0-300.481l-2.889-5.778m0 0z" p-id="10788" fill="#ffffff"></path></svg>