<?xml version="1.0" standalone="no"?><!DOCTYPE svg PUBLIC "-//W3C//DTD SVG 1.1//EN" "http://www.w3.org/Graphics/SVG/1.1/DTD/svg11.dtd"><svg t="1511628438117" class="icon" style="" viewBox="0 0 1274 1024" version="1.1" xmlns="http://www.w3.org/2000/svg" p-id="14605" xmlns:xlink="http://www.w3.org/1999/xlink" width="79.625" height="64"><defs><style type="text/css"></style></defs><path d="M233.187 779.313C206.646 752.772 174.416 739.5 136.5 739.5s-70.146 13.272-96.688 39.813S0 838.086 0 876s13.271 70.148 39.813 96.688 58.77 39.812 96.687 39.812c37.917 0 70.146-13.273 96.688-39.813S273 913.914 273 876s-13.272-70.147-39.813-96.687z m0-364C206.646 388.773 174.416 375.5 136.5 375.5s-70.146 13.273-96.688 39.813S0 474.085 0 512c0 37.914 13.271 70.148 39.813 96.688S98.583 648.5 136.5 648.5c37.917 0 70.146-13.273 96.688-39.813S273 549.914 273 512c0-37.915-13.272-70.148-39.813-96.687z m1034.061 376.441c-4.508-4.5-9.839-6.754-15.996-6.754H386.75c-6.164 0-11.496 2.254-15.996 6.754S364 801.586 364 807.75v136.5c0 6.164 2.254 11.496 6.754 15.996S380.585 967 386.75 967h864.502c6.157 0 11.488-2.254 15.996-6.754 4.5-4.5 6.754-9.832 6.754-15.996v-136.5c0-6.164-2.254-11.496-6.754-15.996zM233.187 51.313C206.646 24.773 174.416 11.5 136.5 11.5s-70.146 13.273-96.688 39.813S0 110.086 0 148c0 37.915 13.271 70.148 39.813 96.688S98.583 284.5 136.5 284.5c37.917 0 70.146-13.273 96.688-39.813S273 185.915 273 148c0-37.914-13.272-70.148-39.813-96.687z m1034.061 376.441c-4.508-4.5-9.839-6.754-15.996-6.754H386.75c-6.164 0-11.496 2.253-15.996 6.754S364 437.586 364 443.75v136.5c0 6.164 2.254 11.496 6.754 15.996S380.585 603 386.75 603h864.502c6.157 0 11.488-2.254 15.996-6.754 4.5-4.5 6.754-9.832 6.754-15.996v-136.5c0-6.164-2.254-11.496-6.754-15.996z m0-364c-4.508-4.5-9.839-6.754-15.996-6.754H386.75c-6.164 0-11.496 2.254-15.996 6.754S364 73.586 364 79.75v136.5c0 6.164 2.254 11.496 6.754 15.996S380.585 239 386.75 239h864.502c6.157 0 11.488-2.253 15.996-6.754 4.5-4.5 6.754-9.832 6.754-15.996V79.75c0-6.164-2.254-11.496-6.754-15.996z" fill="#ffffff" p-id="14606"></path></svg>