<?xml version="1.0" standalone="no"?><!DOCTYPE svg PUBLIC "-//W3C//DTD SVG 1.1//EN" "http://www.w3.org/Graphics/SVG/1.1/DTD/svg11.dtd"><svg t="1511628362747" class="icon" style="" viewBox="0 0 1024 1024" version="1.1" xmlns="http://www.w3.org/2000/svg" p-id="13339" xmlns:xlink="http://www.w3.org/1999/xlink" width="64" height="64"><defs><style type="text/css"></style></defs><path d="M112.88576 865.18784v-341.62688c-1.4592-49.16224 5.62688-95.31904 21.25824-138.48064 15.62112-43.16672 37.51936-81.13152 65.8688-113.9456 28.25728-32.70144 62.0544-59.8784 101.5808-81.49504 39.43936-21.53984 82.23232-35.34336 128.38912-41.25184v147.37408c-56.60672 19.3536-95.31392 47.96928-116.1216 85.95968-20.89984 37.98016-31.25248 84.50048-31.25248 139.55584H429.9776v343.9104H112.88576z m475.65312 0v-341.62688c-1.55136-49.16224 5.54496-95.31904 21.16096-138.48064 15.63136-43.16672 37.632-81.13152 65.87904-113.9456 28.25728-32.70144 62.14656-59.8784 101.5808-81.49504 39.43936-21.53984 82.31936-35.34336 128.4864-41.25184v147.37408c-56.61696 19.3536-95.31904 47.96928-116.12672 85.95968-20.89984 37.98016-31.2576 84.50048-31.2576 139.55584h147.38432v343.9104h-317.1072z" p-id="13340" fill="#ffffff"></path></svg>