<?xml version="1.0" standalone="no"?><!DOCTYPE svg PUBLIC "-//W3C//DTD SVG 1.1//EN" "http://www.w3.org/Graphics/SVG/1.1/DTD/svg11.dtd"><svg t="1511628604345" class="icon" style="" viewBox="0 0 1024 1024" version="1.1" xmlns="http://www.w3.org/2000/svg" p-id="18046" xmlns:xlink="http://www.w3.org/1999/xlink" width="64" height="64"><defs><style type="text/css"></style></defs><path d="M513.969 114.104c130.751 0 261.503-0.029 392.27 0.014 45.1 0.014 60.566 15.269 60.572 60.072 0.019 225.019-0.015 450.034-0.144 675.053-0.029 45.36-15.019 60.6-59.809 60.609-263.794 0.092-527.591 0.082-791.391 0.015-41.745-0.015-58.113-15.96-58.151-57.773-0.173-227.303-0.188-454.613 0.023-681.917 0.038-40.271 16.484-55.972 57.504-56.011 133.046-0.154 266.078-0.057 399.125-0.062zM342.608 697.332h-225.926v153.375h225.926v-153.375zM624.517 851.595v-153.543h-224.64v153.543h224.64zM681.373 850.367h226.075v-152.737h-226.075v152.737zM117.071 491.46v152.006h224.899v-152.006h-224.899zM681.176 645.463c73.714 0 144.855 0.163 215.981-0.466 3.84-0.038 10.872-6.754 10.934-10.449 0.74-47.472 0.485-94.959 0.485-142.229h-227.4v153.144zM398.811 643.71h225.984v-151.538h-225.984v151.541zM342.162 439.213v-152.859h-226.868c0 47.602-0.465 93.077 0.663 138.503 0.115 4.901 9.346 13.675 14.428 13.738 69.817 0.917 139.652 0.619 211.777 0.619zM399.359 437.134h224.889v-151.257h-224.889v151.257zM906.984 437.777v-152.122h-225.313v152.123h225.312zM906.984 437.777z" p-id="18047" fill="#ffffff"></path></svg>