<?xml version="1.0" standalone="no"?><!DOCTYPE svg PUBLIC "-//W3C//DTD SVG 1.1//EN" "http://www.w3.org/Graphics/SVG/1.1/DTD/svg11.dtd"><svg t="1490023200752" class="icon" style="" viewBox="0 0 1024 1024" version="1.1" xmlns="http://www.w3.org/2000/svg" p-id="3339" xmlns:xlink="http://www.w3.org/1999/xlink" width="32" height="32"><defs><style type="text/css"></style></defs><path d="M264.16128 285.13792C264.28416 146.9184 376.92416 33.57184 514.3808 33.36192c138.19904-0.20992 251.08992 114.01216 250.81856 253.77792C764.93824 424.59136 649.96864 539.07968 513.6896 537.6 375.21408 536.09984 264.04864 423.61856 264.16128 285.13792zM514.96448 98.17088C411.4432 98.08896 327.40352 180.61824 325.71392 284.01664c-1.64864 101.48352 85.73952 189.09696 188.70272 189.16352 103.06048 0.06144 190.21312-86.79936 189.23008-188.62592C702.6688 181.55008 618.33216 98.24256 514.96448 98.17088z" p-id="3340" fill="#ffffff"></path><path d="M513.46944 656.36352c-89.52832 0-179.06176-0.04096-268.59008 0.01024-67.62496 0.04096-92.3136 24.2176-93.0816 92.36992-0.5888 52.85376-0.12288 105.72288-0.27136 158.592-0.0256 10.18368 0.47616 20.67456-6.09792 29.50656-8.20224 11.01824-19.78368 13.07648-32.08192 10.1376-14.2848-3.4048-21.97504-14.37696-22.0416-28.05248-0.34816-70.7328-4.2752-141.85984 1.73568-212.11136 6.28224-73.41056 63.17568-113.76128 150.4512-114.90816 84.39296-1.11104 168.82176-0.29184 253.23008-0.30208 92.08832-0.01024 184.17664 0.13824 276.25984-0.1024 23.14752-0.07168 46.21824 1.73056 68.5312 6.97856 55.38816 13.02528 95.27808 61.75232 96.89088 120.85248 1.7408 63.89248 0.62976 127.88224 0.33792 191.82592-0.1024 19.87584-7.02976 35.6096-30.17216 36.70528-20.29056 0.95744-30.35136-11.09504-30.60224-37.86752-0.49152-53.71392 0.19968-107.43808-0.38912-161.14688-0.74752-68.224-25.4208-92.44672-92.96896-92.48256C694.23104 656.32256 603.84768 656.36352 513.46944 656.36352z" p-id="3341" fill="#ffffff"></path><path d="M655.19104 803.91168c-0.36864 9.95328-5.49888 16.71168-11.53024 22.87616-48.27136 49.29024-96.39936 98.72384-145.01376 147.67616-15.17568 15.2832-31.71328 15.07328-47.1808-0.3584-30.75584-30.69952-61.47072-61.44-91.93472-92.42112-14.56128-14.80192-18.42688-30.8992-1.75104-46.80192 15.68256-14.9504 31.33952-14.65856 46.80192 1.30048 17.78688 18.36032 36.56704 35.75808 54.04672 54.38976 11.45344 12.20608 20.25472 11.41248 31.69792-0.3328 35.09248-35.9936 70.912-71.27552 106.624-106.65472 9.4208-9.33888 20.4288-17.10592 34.14016-10.0864C643.52768 779.86304 652.61056 790.03648 655.19104 803.91168z" p-id="3342" fill="#ffffff"></path><path d="M657.73056 278.62016c0 4.25472 0.32256 8.54016-0.08192 12.75392-0.64 6.80448-1.07008 14.7456-10.5216 14.464-7.60832-0.24064-8.56064-7.03488-9.4208-13.056-1.20832-8.41728-2.08896-16.896-3.59936-25.25696-10.90048-60.50816-55.04-99.5584-116.02944-102.80448-2.54976-0.13824-5.12-0.00512-7.65952-0.22528-8.63232-0.74752-18.6624-1.21856-17.93536-13.02016 0.60928-9.9584 9.92256-10.25024 17.62816-10.68032 32.91136-1.8688 62.08 9.45152 88.77056 27.19232C634.86976 191.8976 657.39776 235.25888 657.73056 278.62016z" p-id="3343" fill="#ffffff"></path></svg>