<?xml version="1.0" standalone="no"?>
<!DOCTYPE svg PUBLIC "-//W3C//DTD SVG 1.1//EN" "http://www.w3.org/Graphics/SVG/1.1/DTD/svg11.dtd">
<svg viewBox="0 0 1024 1024" version="1.1" xmlns="http://www.w3.org/2000/svg" xmlns:xlink="http://www.w3.org/1999/xlink" width="200" height="200">
<path d="M929.68 873.872l-361.898667-362.106667 361.3792-361.592533c11.909333-11.92 11.909333-31.237333 0-43.157333l-12.680533-12.6944c-11.909333-11.92-31.217067-11.92-43.124267 0L511.9648 455.9168 150.576 94.321067c-11.909333-11.92-31.217067-11.92-43.1264 0l-12.6816 12.6944c-11.909333 11.92-11.909333 31.237333 0 43.157333l361.3792 361.5936-361.899733 362.1056c-11.909333 11.92-11.909333 31.250133 0 43.170133l12.680533 12.6944c11.909333 11.9072 31.217067 11.9072 43.1264 0l361.908267-362.1216 361.908267 362.1216c11.909333 11.9072 31.220267 11.9072 43.1264 0l12.6816-12.6944C941.589333 905.122133 941.589333 885.792 929.68 873.872z" p-id="1826" fill="#fff"></path></svg>