<?xml version="1.0" standalone="no"?><!DOCTYPE svg PUBLIC "-//W3C//DTD SVG 1.1//EN" "http://www.w3.org/Graphics/SVG/1.1/DTD/svg11.dtd"><svg t="1511249187653" class="icon" style="" viewBox="0 0 1024 1024" version="1.1" xmlns="http://www.w3.org/2000/svg" p-id="2280" xmlns:xlink="http://www.w3.org/1999/xlink" width="64" height="64"><defs><style type="text/css"></style></defs><path d="M573.297664 573.21472c-22.631424 0-44.142592 7.76192-61.297664 21.548032-17.155072-13.786112-38.66624-21.548032-61.297664-21.548032-54.011904 0-97.952768 43.940864-97.952768 97.94048 0 81.881088 63.309824 129.155072 143.654912 188.70272 4.238336 3.487744 9.678848 5.595136 15.59552 5.595136 5.535744 0 10.65472-1.857536 14.761984-4.97664 80.738304-59.845632 144.488448-107.154432 144.488448-189.309952C671.250432 617.15456 627.309568 573.21472 573.297664 573.21472zM512 810.678272c-72.667136-54.321152-110.488576-87.749632-110.488576-139.524096 0-27.118592 22.071296-49.178624 49.190912-49.178624 16.499712 0 31.821824 8.23808 40.987648 22.024192 9.048064 13.6192 31.570944 13.6192 40.619008 0 9.166848-13.786112 24.487936-22.024192 40.987648-22.024192 27.118592 0 49.190912 22.071296 49.190912 49.190912C622.488576 722.92864 584.667136 756.35712 512 810.678272z" p-id="2281" fill="#cccccc"></path><path d="M791.488512 399.761408 722.01216 399.761408 722.01216 209.999872C722.01216 94.20288 627.80928 0 512.012288 0 396.201984 0 301.98784 94.20288 301.98784 209.999872l0 189.761536-69.476352 0c-67.214336 0-121.905152 54.690816-121.905152 121.905152l0 380.428288c0 67.214336 54.690816 121.905152 121.905152 121.905152l558.976 0c67.214336 0 121.905152-54.690816 121.905152-121.905152L913.39264 521.66656C913.39264 454.452224 858.702848 399.761408 791.488512 399.761408zM350.749696 209.999872c0-88.904704 72.3456-161.238016 161.261568-161.238016 88.904704 0 161.238016 72.333312 161.238016 161.238016l0 189.761536L350.749696 399.761408 350.749696 209.999872zM864.630784 902.094848c0 40.333312-32.809984 73.143296-73.143296 73.143296L232.511488 975.238144c-40.333312 0-73.143296-32.809984-73.143296-73.143296L159.368192 521.66656c0-40.333312 32.809984-73.143296 73.143296-73.143296l558.976 0c40.333312 0 73.143296 32.809984 73.143296 73.143296L864.630784 902.094848z" p-id="2282" fill="#cccccc"></path></svg>