<?xml version="1.0" standalone="no"?><!DOCTYPE svg PUBLIC "-//W3C//DTD SVG 1.1//EN" "http://www.w3.org/Graphics/SVG/1.1/DTD/svg11.dtd"><svg width="18.875" height="16" viewBox="0 0 18.875 16" version="1.1" xmlns="http://www.w3.org/2000/svg" xmlns:xlink="http://www.w3.org/1999/xlink"><defs><style type="text/css"><![CDATA[
@font-face { font-family: ifont; src: url("//at.alicdn.com/t/font_1442373896_4754455.eot?#iefix") format("embedded-opentype"), url("//at.alicdn.com/t/font_1442373896_4754455.woff") format("woff"), url("//at.alicdn.com/t/font_1442373896_4754455.ttf") format("truetype"), url("//at.alicdn.com/t/font_1442373896_4754455.svg#ifont") format("svg"); }

]]></style></defs><g class="transform-group"><g transform="scale(0.015625, 0.015625)"><path d="M567.138462 181.169231l-189.046154 0c-99.774359 0-196.923077 39.384615-267.815385 110.276923-70.892308 70.892308-110.276923 165.415385-110.276923 267.815385 0 34.133333 5.251282 68.266667 13.128205 102.4 5.251282 18.379487 23.630769 31.507692 42.010256 31.507692 2.625641 0 7.876923 0 10.502564-2.625641 23.630769-5.251282 36.758974-28.882051 28.882051-52.512821-7.876923-26.25641-10.502564-52.512821-10.502564-78.769231 0-162.789744 131.282051-294.071795 294.071795-294.071795l173.292308 0C554.010256 236.307692 559.261538 207.425641 567.138462 181.169231zM947.85641 656.410256c-47.261538 97.148718-147.035897 165.415385-262.564103 165.415385L288.820513 821.825641l0-76.14359c0-23.630769-15.753846-34.133333-36.758974-21.005128l-181.169231 112.902564c-21.005128 13.128205-21.005128 34.133333 0 47.261538l183.794872 118.153846c21.005128 13.128205 36.758974 5.251282 36.758974-21.005128l0-76.14359 396.471795 0c99.774359 0 196.923077-39.384615 267.815385-110.276923 44.635897-44.635897 78.769231-99.774359 94.523077-160.164103C1016.123077 645.907692 981.989744 653.784615 947.85641 656.410256zM918.974359 0c-160.164103 0-288.820513 128.65641-288.820513 288.820513s128.65641 288.820513 288.820513 288.820513 288.820513-128.65641 288.820513-288.820513S1079.138462 0 918.974359 0zM971.487179 443.733333l-55.138462 0 0-217.928205c-21.005128 18.379487-44.635897 31.507692-76.14359 42.010256L840.205128 210.051282c15.753846-2.625641 31.507692-10.502564 47.261538-21.005128 15.753846-10.502564 31.507692-21.005128 42.010256-34.133333l42.010256 0L971.487179 443.733333z" fill="#fff"></path></g></g></svg>