<?xml version="1.0" standalone="no"?><!DOCTYPE svg PUBLIC "-//W3C//DTD SVG 1.1//EN" "http://www.w3.org/Graphics/SVG/1.1/DTD/svg11.dtd"><svg width="18.234375" height="16" viewBox="0 0 18.234375 16" version="1.1" xmlns="http://www.w3.org/2000/svg" xmlns:xlink="http://www.w3.org/1999/xlink"><defs><style type="text/css"><![CDATA[
@font-face { font-family: ifont; src: url("//at.alicdn.com/t/font_1442373896_4754455.eot?#iefix") format("embedded-opentype"), url("//at.alicdn.com/t/font_1442373896_4754455.woff") format("woff"), url("//at.alicdn.com/t/font_1442373896_4754455.ttf") format("truetype"), url("//at.alicdn.com/t/font_1442373896_4754455.svg#ifont") format("svg"); }

]]></style></defs><g class="transform-group"><g transform="scale(0.015625, 0.015625)"><path d="M71.822222 662.670222c24.604444-6.826667 38.997333-32.312889 32.170667-56.888889-7.651556-27.591111-11.548444-56.234667-11.548444-85.191111 0-175.047111 142.421333-317.468444 317.468444-317.468444l430.165333 0L840.078222 285.013333c0 26.282667 18.289778 36.465778 40.618667 22.613333l197.091556-122.083556c22.328889-13.852444 22.556444-36.835556 0.483556-51.086222L880.213333 6.542222c-22.072889-14.250667-40.135111-4.408889-40.135111 21.845333l0 82.289778L409.884444 110.677333c-109.482667 0-212.423111 42.638222-289.848889 120.064C42.638222 308.167111 0 411.107556 0 520.590222c0 37.319111 5.034667 74.296889 14.933333 109.937778 5.688889 20.451556 24.263111 33.848889 44.515556 33.848889C63.516444 664.376889 67.697778 663.836444 71.822222 662.670222zM1136.64 375.182222C1130.951111 354.730667 1112.376889 341.333333 1092.124444 341.333333c-4.096 0-8.248889 0.540444-12.401778 1.706667-24.604444 6.826667-38.997333 32.312889-32.170667 56.888889 7.651556 27.591111 11.548444 56.234667 11.548444 85.191111 0 175.047111-142.421333 317.468444-317.468444 317.468444L311.495111 802.588444l0-81.891556c0-26.282667-18.289778-36.465778-40.618667-22.613333l-197.091556 122.083556c-22.328889 13.852444-22.556444 36.835556-0.483556 51.086222l198.030222 127.914667c22.072889 14.250667 40.135111 4.408889 40.135111-21.845333l0-82.289778 430.165333 0c109.482667 0 212.423111-42.638222 289.848889-120.064 77.425778-77.425778 120.064-180.366222 120.064-289.848889C1151.544889 447.829333 1146.538667 410.823111 1136.64 375.182222z" fill="#fff"></path></g></g></svg>