<?xml version="1.0" standalone="no"?><!DOCTYPE svg PUBLIC "-//W3C//DTD SVG 1.1//EN" "http://www.w3.org/Graphics/SVG/1.1/DTD/svg11.dtd"><svg width="16" height="16" viewBox="0 0 16 16" version="1.1" xmlns="http://www.w3.org/2000/svg" xmlns:xlink="http://www.w3.org/1999/xlink"><defs><style type="text/css"><![CDATA[
@font-face { font-family: ifont; src: url("//at.alicdn.com/t/font_1442373896_4754455.eot?#iefix") format("embedded-opentype"), url("//at.alicdn.com/t/font_1442373896_4754455.woff") format("woff"), url("//at.alicdn.com/t/font_1442373896_4754455.ttf") format("truetype"), url("//at.alicdn.com/t/font_1442373896_4754455.svg#ifont") format("svg"); }

]]></style></defs><g class="transform-group"><g transform="scale(0.015625, 0.015625)"><path d="M505.813602 110.868063c-218.522945 0-396.290675 177.767729-396.290675 396.277372 0 218.515782 177.767729 396.294768 396.290675 396.294768 218.505549 0 396.285558-177.778986 396.285558-396.294768C902.099161 288.63477 724.319152 110.868063 505.813602 110.868063zM505.813602 854.316389c-191.429891 0-347.166861-155.735947-347.166861-347.170954 0-191.417611 155.73697-347.154581 347.166861-347.154581 191.424774 0 347.162768 155.735947 347.162768 347.154581C852.97637 698.579419 697.238376 854.316389 505.813602 854.316389zM505.813602 414.800237c-50.92074 0-92.345198 41.422412-92.345198 92.345198 0 50.922786 41.423435 92.345198 92.345198 92.345198 50.91767 0 92.340081-41.422412 92.340081-92.345198C598.153684 456.222649 556.735365 414.800237 505.813602 414.800237zM505.813602 550.366819c-23.845081 0-43.225477-19.392676-43.225477-43.222407 0-23.828708 19.380396-43.221384 43.225477-43.221384 23.828708 0 43.220361 19.392676 43.220361 43.221384C549.033963 530.974144 529.642311 550.366819 505.813602 550.366819zM219.583602 535.281239c6.77531 0 12.002358-7.147794 11.691273-13.93743-0.202615-4.293793-0.297782-9.702989-0.297782-14.057157 0-6.788613-5.504364-12.136412-12.279674-12.136412-6.788613 0-12.283768 5.78168-12.283768 12.56927 0 4.738931 0.10847 10.026354 0.324388 14.70184 0.311085 6.584975 5.733585 12.859889 12.258185 12.859889C219.184513 535.281239 219.374848 535.281239 219.583602 535.281239zM370.472148 746.42717c-72.108295-40.915875-121.508401-110.998023-135.518486-192.317097-1.150196-6.67912-7.432273-11.17655-14.186094-10.017144-6.680143 1.153266-11.164271 7.496741-10.014074 14.190187 15.266705 88.586594 69.064982 164.949796 147.608849 209.516828 1.918699 1.080611 3.993964 1.582031 6.04467 1.582031 4.279467 0 8.43102-2.230808 10.697643-6.212492C378.449843 757.272169 376.374578 749.766219 370.472148 746.42717zM346.777493 668.935262c3.105734 0 6.222725-1.175779 8.609075-3.52836 4.833075-4.748141 4.907777-12.521175 0.155543-17.364483-31.900547-32.460296-49.469692-75.396177-49.469692-120.895441 0-6.788613-5.503341-12.279674-12.278651-12.279674-6.789637 0-12.280698 5.491061-12.280698 12.279674 0 51.990095 20.062941 101.026928 56.510038 138.116661C340.422761 667.707294 343.599104 668.935262 346.777493 668.935262zM393.631614 677.328419c-3.463891-1.988284-6.857175-4.051269-10.17064-6.260587-5.658883-3.787256-13.260002-2.231831-17.024745 3.432169-3.75451 5.634324-2.219551 13.262048 3.415796 17.001209 3.799536 2.547009 7.687076 4.92108 11.656481 7.173376 1.907443 1.081635 3.994987 1.608637 6.04467 1.608637 4.28049 0 8.43102-2.231831 10.697643-6.213515C401.594983 688.172395 399.533021 680.661328 393.631614 677.328419zM410.182568 605.677543c-23.301705-13.204743-37.764092-38.028105-37.764092-64.772212 0-6.78759-5.504364-12.279674-12.279674-12.279674-6.789637 0-12.284791 5.492084-12.284791 12.279674 0 35.5691 19.237133 68.572772 50.219775 86.140892 1.90028 1.080611 3.989871 1.595334 6.040576 1.595334 4.27128 0 8.429996-2.226714 10.68741-6.221702C418.145937 616.521518 416.079882 609.024777 410.182568 605.677543zM678.062642 252.478292c-5.469572-4.016477-13.165858-2.828418-17.174148 2.62478-4.004197 5.469572-2.828418 13.157671 2.63706 17.161868 79.611176 58.4666 121.884978 155.809625 110.310362 254.069533-0.789992 6.736425 4.02978 12.842493 10.771321 13.633508 0.479931 0.060375 0.972141 0.085958 1.452071 0.085958 6.135744 0 11.441587-4.591575 12.172227-10.839883C810.835597 422.189531 764.781702 316.14738 678.062642 252.478292zM649.736503 324.854693c-5.481851-4.016477-13.169951-2.827395-17.174148 2.628874-4.00829 5.465478-2.832512 13.153578 2.638083 17.161868 49.961902 36.684504 76.488045 97.789187 69.220524 159.451572-0.791016 6.740518 4.021593 12.846586 10.758018 13.637602 0.493234 0.060375 0.973164 0.082888 1.453095 0.082888 6.139837 0 11.441587-4.591575 12.184507-10.839883C737.113549 436.545494 706.821639 366.758058 649.736503 324.854693zM621.562836 386.474099c-5.465478-4.00829-13.153578-2.831488-17.170055 2.623757-4.00829 5.470595-2.832512 13.157671 2.638083 17.161868 21.549805 15.830547 32.990369 42.179658 29.860075 68.780503-0.789992 6.740518 4.0175 12.842493 10.758018 13.636578 0.493234 0.057305 0.973164 0.083911 1.453095 0.083911 6.139837 0 11.441587-4.597715 12.184507-10.839883C665.446299 442.551278 650.225643 407.522484 621.562836 386.474099z" fill="#fff"></path></g></g></svg>