<?xml version="1.0" standalone="no"?><!DOCTYPE svg PUBLIC "-//W3C//DTD SVG 1.1//EN" "http://www.w3.org/Graphics/SVG/1.1/DTD/svg11.dtd"><svg class="icon" width="64px" height="64.00px" viewBox="0 0 1024 1024" version="1.1" xmlns="http://www.w3.org/2000/svg"><path fill="#ffffff" d="M512 0C230.4 0 0 230.4 0 512s230.4 512 512 512 512-230.4 512-512S793.6 0 512 0z m-57.6 723.2c0 19.2-19.2 32-44.8 32-25.6 0-44.8-12.8-44.8-32V300.8c0-19.2 19.2-32 44.8-32 25.6 0 44.8 12.8 44.8 32v422.4z m211.2 0c0 19.2-19.2 32-44.8 32-25.6 0-44.8-12.8-44.8-32V300.8c0-19.2 19.2-32 44.8-32 25.6 0 44.8 12.8 44.8 32v422.4z" /></svg>