<?xml version="1.0" standalone="no"?><!DOCTYPE svg PUBLIC "-//W3C//DTD SVG 1.1//EN" "http://www.w3.org/Graphics/SVG/1.1/DTD/svg11.dtd"><svg t="1495617583101" class="icon" style="" viewBox="0 0 1024 1024" version="1.1" xmlns="http://www.w3.org/2000/svg" p-id="1472" xmlns:xlink="http://www.w3.org/1999/xlink" width="200" height="200"><defs><style type="text/css"></style></defs><path d="M870.4 153.6l0-102.4-768 0 0 102.4 768 0zM870.4 358.4l0-102.4-768 0 0 102.4 768 0zM512 563.2l0-102.4-409.6 0 0 102.4 409.6 0zM893.44 462.848l-307.2 57.344c-8.192 1.024-9.728 1.536-14.848 6.656-5.632 4.608-8.192 11.264-8.192 18.944l0 235.008c-14.848-6.656-33.792-7.168-47.616-7.168-27.648 0-51.2 9.728-70.656 29.184s-28.672 43.008-28.672 70.656c0 27.136 9.216 50.688 28.672 70.144s43.008 29.184 70.656 29.184c25.088 0 47.104-8.192 66.048-24.576s30.208-36.352 33.28-60.928l0-253.44 255.488-56.832 0 178.176c-14.848-6.656-28.672-9.728-42.496-9.728-27.648 0-56.832 9.728-76.288 29.184-19.456 18.944-29.184 42.496-29.184 70.144s9.728 50.688 29.184 70.144 43.008 29.184 70.656 29.184c27.136 0 50.688-9.728 70.144-29.184s29.184-42.496 29.184-70.144l0-353.28c0-8.192-2.56-15.36-8.192-20.992-5.632-6.144-12.288-8.704-19.968-7.68zM409.6 768l0-102.4-307.2 0 0 102.4 307.2 0zM307.2 972.8l0-102.4-204.8 0 0 102.4 204.8 0z" p-id="1473" fill="#ffffff"></path></svg>